<?xml version="1.0" encoding="UTF-8" standalone="no"?>
<!-- Uploaded to: SVG Repo, www.svgrepo.com, Generator: SVG Repo Mixer Tools -->

<svg
   fill="#000000"
   height="48"
   width="48"
   version="1.1"
   id="Layer_1"
   viewBox="0 0 30.71988 30.71988"
   xml:space="preserve"
   sodipodi:docname="icon-ak47-48x48.svg"
   inkscape:version="1.3.2 (091e20ef0f, 2023-11-25, custom)"
   xmlns:inkscape="http://www.inkscape.org/namespaces/inkscape"
   xmlns:sodipodi="http://sodipodi.sourceforge.net/DTD/sodipodi-0.dtd"
   xmlns="http://www.w3.org/2000/svg"
   xmlns:svg="http://www.w3.org/2000/svg"><defs
   id="defs4">
	

	

		
	
		
	</defs><sodipodi:namedview
   id="namedview4"
   pagecolor="#ffffff"
   bordercolor="#000000"
   borderopacity="0.25"
   inkscape:showpageshadow="2"
   inkscape:pageopacity="0.0"
   inkscape:pagecheckerboard="0"
   inkscape:deskcolor="#d1d1d1"
   inkscape:zoom="9.291383"
   inkscape:cx="49.777304"
   inkscape:cy="33.848567"
   inkscape:window-width="1706"
   inkscape:window-height="1395"
   inkscape:window-x="1723"
   inkscape:window-y="9"
   inkscape:window-maximized="1"
   inkscape:current-layer="Layer_1" />

<rect
   style="fill:#277d32;stroke:#000000;stroke-width:1.27999;stroke-linejoin:round;stroke-miterlimit:3.3;stroke-dasharray:none;stroke-opacity:1;paint-order:normal;fill-opacity:1"
   id="rect1"
   width="29.707281"
   height="29.573696"
   x="0.40514532"
   y="0.38345611"
   rx="2.5599899" /><path
   d="m 27.707771,3.2316743 c 0.181668,-0.181668 0.181668,-0.476211 0,-0.657879 -0.181667,-0.181668 -0.476262,-0.181668 -0.657879,0 l -0.170748,0.170749 -0.219088,-0.219087 c -0.181617,-0.181668 -0.476212,-0.181668 -0.657878,0 -0.181668,0.181666 -0.181668,0.476211 0,0.657929 l 0.219087,0.219088 -3.085991,3.086042 -1.125017,-0.511375 c -0.17649,-0.08022 -0.384403,-0.04255 -0.521474,0.09458 l -2.830457,2.830456 -0.01763,-0.01763 c -0.181667,-0.181668 -0.476263,-0.181668 -0.657878,0 L 9.4795535,17.387708 c -0.0873,0.08719 -0.136302,0.205555 -0.136302,0.32894 v 0.952831 l -1.341336,2.573898 -1.022239,0.340729 c -0.08791,0.02927 -0.165008,0.08412 -0.221497,0.157576 l -3.081993,4.002531 c -0.08033,0.104315 -0.112722,0.237746 -0.08909,0.367282 0.02363,0.129535 0.100983,0.242975 0.212936,0.312177 l 3.462193,2.14136 c 0.07433,0.04598 0.159165,0.06956 0.24477,0.06956 0.04598,0 0.09211,-0.0068 0.136968,-0.02066 0.128356,-0.03952 0.233287,-0.13261 0.287931,-0.255226 l 3.3710505,-7.566169 0.590523,0.274194 c 0.262865,0.122051 0.469701,0.336371 0.58227,0.60349 l 0.988765,2.345789 c 0.04803,0.1139 0.139377,0.204017 0.253894,0.250408 0.05608,0.02271 0.115438,0.03414 0.174799,0.03414 0.06192,0 0.123743,-0.01235 0.181872,-0.03701 l 1.765108,-0.749533 c 0.216679,-0.09201 0.330478,-0.331399 0.264966,-0.557562 l -0.987433,-3.411239 1.738401,-1.738401 c 0.839239,0.529676 1.756086,0.932431 2.719837,1.188323 0.83237,0.221087 1.689909,0.331656 2.547652,0.331656 0.81243,0 1.625115,-0.09924 2.416323,-0.297926 0.236209,-0.05931 0.38671,-0.290648 0.345138,-0.530599 l -0.491744,-2.83912 c -0.02255,-0.130253 -0.0995,-0.244718 -0.211449,-0.314843 -0.112107,-0.07018 -0.248666,-0.0893 -0.375587,-0.0528 -2.042991,0.588011 -4.238433,0.06356 -5.791629,-1.367172 l 0.143377,-0.67541 2.094662,-2.094713 c 0.0873,-0.08719 0.136302,-0.205555 0.136302,-0.32894 0,-0.07735 -0.01928,-0.152653 -0.05516,-0.219651 L 23.56525,7.3742003 Z M 15.603706,17.74345 15.052655,17.192398 15.483448,16.761604 c 0.193304,0.175772 0.392708,0.34401 0.598622,0.503431 z m 4.08624,-7.8098097 -0.373742,-0.373742 2.602451,-2.602398 0.513836,0.233544 z"
   id="path1"
   style="fill:#000000;fill-opacity:1;stroke-width:0.0512606"
   sodipodi:nodetypes="sscccscccsccsccscccccsccscccscccsccccccsccccccccsccscccccccccc" />
</svg>
